<svg width="346" height="318" viewBox="0 0 346 318" fill="none" xmlns="http://www.w3.org/2000/svg">
	<path d="M6.264 149.323c-8.417-52.414-2.083-67.15.31-69.073h333.998c8.107 15.83-.06 74.407-6.2 96.893-8.137 29.802-23.633 63.764-33.685 79.146-10.971 16.788-44.527 59.479-127.031 59.479-87.272 0-118.241-44.585-126.378-56.601-8.137-12.017-32.024-53.87-41.014-109.844z" fill="#111A19" stroke="#00AE99" stroke-width="3.879">
	</path>
	<path d="M343.773 95.951c0 25.472-18.607 48.941-49.589 66.153-30.916 17.175-73.757 27.859-121.184 27.859-47.427 0-90.269-10.684-121.184-27.859-30.982-17.212-49.589-40.681-49.589-66.153 0-25.471 18.607-48.94 49.589-66.152C82.73 12.624 125.573 1.94 173 1.94c47.427 0 90.268 10.685 121.184 27.86 30.982 17.212 49.589 40.68 49.589 66.153z" fill="#111A19" stroke="#00AE99" stroke-width="3.879">
	</path>
	<path d="M323.485 92.463c0 21.944-16.389 42.099-43.524 56.843-27.085 14.716-64.59 23.858-106.089 23.858-41.498 0-79.004-9.142-106.089-23.858-27.135-14.744-43.523-34.899-43.523-56.843 0-21.945 16.388-42.1 43.523-56.843 27.085-14.717 64.591-23.86 106.089-23.86 41.499 0 79.004 9.143 106.089 23.86 27.135 14.743 43.524 34.898 43.524 56.843z" fill="#111A19" stroke="#00AE99" stroke-width="2.586">
	</path>
	<path d="M311.273 104.674c0 18.529-14.769 35.638-39.406 48.192-24.566 12.518-58.593 20.298-96.25 20.298s-71.685-7.78-96.25-20.298C54.73 140.312 39.96 123.203 39.96 104.674S54.73 69.036 79.366 56.482c24.566-12.517 58.594-20.298 96.251-20.298 37.657 0 71.684 7.78 96.25 20.298 24.637 12.554 39.406 29.663 39.406 48.192z" fill="#111A19" stroke="#00AE99" stroke-width="2.586">
	</path>
</svg>
