<svg width="300" height="278" viewBox="0 0 300 278" fill="none" xmlns="http://www.w3.org/2000/svg">
	<path d="M283.36 2.147L170.956 83.7l18.321-46.434L283.36 2.148zM16.78 2.147l112.168 81.559-18.084-46.44L16.779 2.147zM241.741 200.434l-30.752 46.978 65.847 18.13 18.864-64.081-53.959-1.027zM4.54 201.461l18.748 64.081 65.733-18.13-30.637-46.978-53.844 1.027z" stroke="#00AE99" stroke-width="2.7" stroke-linecap="round" stroke-linejoin="round">
	</path>
	<path d="M85.468 121.074l-18.29 27.594 65.161 2.964-3.758-68.539-43.113 37.981zM214.653 121.075l-43.798-38.779-3.072 69.338 65.161-2.965-18.291-27.594zM89.01 247.412l39.44-19.042-33.952-26.453-5.487 45.495zM171.68 228.37l39.325 19.042-5.373-45.495-33.952 26.453zM211.005 247.414l-39.325-19.042 3.2 25.542-.343 10.832 36.468-17.332zM89.01 247.414l36.583 17.332-.229-10.832 3.086-25.542-39.44 19.042zM126.282 185.042l-32.695-9.578 23.092-10.604 9.603 20.182zM173.839 185.042l9.603-20.182 23.207 10.604-32.81 9.578z" stroke="#00AE99" stroke-width="2.7" stroke-linecap="round" stroke-linejoin="round">
	</path>
	<path d="M89.022 247.412l5.716-46.978-36.353 1.027 30.637 45.951zM205.393 200.434l5.601 46.978 30.752-45.951-36.353-1.027zM232.944 148.667l-65.161 2.965 6.059 33.41 9.603-20.183 23.206 10.604 26.293-26.796zM93.585 175.463l23.092-10.604 9.603 20.183 6.059-33.41-65.161-2.965 26.407 26.796z" stroke="#00AE99" stroke-width="2.7" stroke-linecap="round" stroke-linejoin="round">
	</path>
	<path d="M67.192 148.667l27.323 53.25-.915-26.454-26.408-26.796zM206.653 175.463l-1.029 26.454 27.322-53.25-26.293 26.796z" stroke="#00AE99" stroke-width="2.7" stroke-linecap="round" stroke-linejoin="round">
	</path>
	<path d="M173.852 185.042l-7.66 39.452 5.488 3.877 33.953-26.454 1.028-26.454-32.809 9.579zM93.587 175.463l.915 26.454 33.952 26.454 5.487-3.877-7.659-39.452-32.695-9.579zM174.521 264.745l.342-10.832-2.971-2.509h-43.67l-2.858 2.509.229 10.832-36.582-17.332 12.803 10.49 25.951 17.903h44.469l26.065-17.903 12.689-10.49-36.467 17.332z" stroke="#00AE99" stroke-width="2.7" stroke-linecap="round" stroke-linejoin="round">
	</path>
	<path d="M171.682 228.37l-5.488-3.876h-32.238l-5.486 3.876-3.087 25.542 2.858-2.509h43.669l2.973 2.509-3.201-25.542zM283.367 2.147l14.634 43.9-9.718 47.205 6.059 4.675-9.259 7.07 7.087 5.473-9.259 8.438 5.83 4.219-13.376 15.621-60.703-17.674M85.471 121.074l-60.703 17.674-13.375-15.621 5.83-4.219-9.26-8.438 7.088-5.473-9.374-7.07 6.287-4.675-9.831-47.206L16.766 2.147M275.358 138.747l-60.703-17.673 18.291 27.594-27.322 53.249 36.125-.456h53.958l-20.349-62.714zM24.774 138.747L4.54 201.461" stroke="#00AE99" stroke-width="2.7" stroke-linecap="round" stroke-linejoin="round">
	</path>
	<path d="M167.781 151.633l3.887-67.612 17.605-46.755h-78.422l17.604 47.548 3.887 66.819 1.486 20.98.115 51.881h32.237l.115-51.881 1.486-20.98z" stroke="#00AE99" stroke-width="2.7" stroke-linecap="round" stroke-linejoin="round">
	</path>
</svg>
