<svg width="394" height="108" viewBox="0 0 394 108" fill="none" xmlns="http://www.w3.org/2000/svg">
	<path d="M20.889 105.863H2V4.668h4.533l7.487 8.827a49.851 49.851 0 0 1 5.564-4.516 41.123 41.123 0 0 1 6.25-3.626 36.746 36.746 0 0 1 6.8-2.464A28.64 28.64 0 0 1 39.709 2c5.174 0 10.028.935 14.561 2.805 4.58 1.825 8.563 4.425 11.952 7.8 3.434 3.376 6.136 7.458 8.105 12.248 1.969 4.743 2.953 10.012 2.953 15.805 0 6.02-.984 11.449-2.954 16.284-1.968 4.79-4.67 8.872-8.104 12.247-3.389 3.33-7.373 5.885-11.952 7.664-4.533 1.779-9.387 2.668-14.561 2.668a22.82 22.82 0 0 1-4.946-.547 38.44 38.44 0 0 1-4.808-1.437 70.438 70.438 0 0 1-4.67-2.121 99.61 99.61 0 0 1-4.396-2.395v32.842zM58.46 40.658c0-3.102-.504-5.884-1.511-8.348-.962-2.463-2.29-4.538-3.984-6.226a17.117 17.117 0 0 0-5.976-3.968c-2.29-.913-4.716-1.369-7.28-1.369-2.565 0-4.992.456-7.281 1.369a17.27 17.27 0 0 0-5.907 3.968c-1.694 1.688-3.045 3.763-4.053 6.226-.961 2.464-1.442 5.246-1.442 8.348 0 2.965.48 5.679 1.442 8.142 1.008 2.463 2.359 4.561 4.053 6.295a18.132 18.132 0 0 0 5.907 4.037c2.29.958 4.716 1.436 7.28 1.436 2.565 0 4.992-.478 7.281-1.436a17.946 17.946 0 0 0 5.976-4.037c1.694-1.734 3.022-3.832 3.984-6.295 1.007-2.463 1.511-5.177 1.511-8.142zM106.472 77.947H87.72V4.668h4.534l6.181 8.69a32.27 32.27 0 0 1 10.303-6.295 32.52 32.52 0 0 1 11.952-2.258h16.553v18.61H120.69c-1.969 0-3.824.366-5.564 1.096-1.74.73-3.251 1.733-4.533 3.01a13.977 13.977 0 0 0-3.022 4.516c-.733 1.733-1.099 3.58-1.099 5.542v40.368zM163.138 105.863V87.047l10.44.137c1.832 0 3.595-.296 5.289-.89a17.593 17.593 0 0 0 4.671-2.462 17.668 17.668 0 0 0 3.846-3.764 19.557 19.557 0 0 0 2.679-4.652 449.434 449.434 0 0 1-6.319 2.6c-2.107.866-4.236 1.3-6.388 1.3-4.534 0-8.792-.799-12.776-2.395s-7.487-3.854-10.509-6.774c-2.976-2.965-5.334-6.545-7.075-10.742-1.694-4.242-2.541-8.986-2.541-14.231V4.668h18.683v40.506c0 2.6.366 4.88 1.099 6.842.778 1.916 1.808 3.535 3.091 4.858a12.505 12.505 0 0 0 4.464 2.873c1.74.639 3.595.958 5.564.958 1.923 0 3.732-.433 5.426-1.3a15.651 15.651 0 0 0 4.533-3.558 17.003 17.003 0 0 0 3.022-4.926 15.621 15.621 0 0 0 1.099-5.747V4.668h18.889V68.71c-.046 5.155-1.053 9.99-3.022 14.506-1.969 4.516-4.671 8.461-8.105 11.837-3.389 3.375-7.349 6.043-11.883 8.005-4.533 1.961-9.387 2.942-14.561 2.942l-9.616-.137zM265.068 77.947h-42.86v-18.61h42.86c1.282 0 2.381-.456 3.297-1.369.916-.912 1.374-2.007 1.374-3.284 0-1.323-.458-2.19-1.374-2.6-.916-.41-2.015-.616-3.297-.616h-19.507c-3.251 0-6.296-.615-9.135-1.847-2.839-1.232-5.312-2.896-7.418-4.995-2.107-2.143-3.778-4.63-5.014-7.458-1.191-2.828-1.786-5.861-1.786-9.1 0-3.238.595-6.271 1.786-9.1 1.236-2.828 2.907-5.29 5.014-7.39 2.106-2.097 4.579-3.74 7.418-4.925 2.839-1.232 5.884-1.848 9.135-1.848h37.984v18.61h-37.984c-1.282 0-2.381.457-3.297 1.37-.916.912-1.374 2.006-1.374 3.283 0 1.323.458 2.464 1.374 3.421.916.913 2.015 1.369 3.297 1.369h19.507c3.205 0 6.228.547 9.067 1.642 2.839 1.05 5.311 2.532 7.418 4.447 2.106 1.916 3.777 4.22 5.014 6.91 1.236 2.692 1.854 5.634 1.854 8.827 0 3.239-.618 6.272-1.854 9.1a24.868 24.868 0 0 1-5.014 7.39c-2.107 2.098-4.579 3.763-7.418 4.994-2.839 1.186-5.862 1.78-9.067 1.78zM392 77.947h-18.683V31.421a8.887 8.887 0 0 0-.755-3.626 8.876 8.876 0 0 0-1.992-3.01 8.909 8.909 0 0 0-3.022-1.985 8.973 8.973 0 0 0-3.641-.753c-1.282 0-2.495.251-3.64.753a9.107 9.107 0 0 0-2.954 1.984 10.45 10.45 0 0 0-1.991 3.01 9.639 9.639 0 0 0-.687 3.627v46.526h-18.752V31.421a8.87 8.87 0 0 0-.755-3.626 8.876 8.876 0 0 0-1.992-3.01 8.909 8.909 0 0 0-3.022-1.985 8.97 8.97 0 0 0-3.641-.753c-1.282 0-2.495.251-3.64.753a9.092 9.092 0 0 0-2.953 1.984 10.432 10.432 0 0 0-1.992 3.01 9.639 9.639 0 0 0-.687 3.627v46.526h-18.752V4.668h4.534l5.083 5.61a29.777 29.777 0 0 1 8.585-5.062 26.817 26.817 0 0 1 9.822-1.848c3.435 0 6.777.639 10.029 1.916 3.297 1.277 6.181 3.49 8.654 6.637a18.996 18.996 0 0 1 3.915-3.968 22.304 22.304 0 0 1 4.602-2.669 22.233 22.233 0 0 1 5.083-1.437c1.74-.319 3.457-.479 5.151-.479 3.893 0 7.533.73 10.921 2.19 3.435 1.46 6.411 3.467 8.93 6.02 2.564 2.51 4.579 5.475 6.044 8.896 1.465 3.42 2.198 7.07 2.198 10.947v46.526z" stroke="#00AE99" stroke-width="3">
	</path>
</svg>
