<svg width="331" height="335" viewBox="0 0 331 335" fill="none" xmlns="http://www.w3.org/2000/svg">
	<path d="M188.53 303.319c53.515-8.042 98.219-46.348 115.429-94.935-13.926 52.756-56.152 94.224-114.225 102.951-79.65 11.969-153.922-42.898-165.89-122.548C11.873 109.136 66.74 34.864 146.39 22.895c58.073-8.727 110.621 18.5 139.438 64.833-30.73-41.383-84.718-64.859-138.234-56.817C72.372 42.215 20.555 112.36 31.859 187.582c11.304 75.224 81.448 127.041 156.671 115.737z" stroke="#00AE99" stroke-width="3">
	</path>
	<path d="M160.573 271.951c58.9 4.763 110.509-39.149 115.275-98.078 4.765-58.929-39.118-110.563-98.018-115.326-41.864-3.386-84.097 17.54-106.65 51.213 20.28-38.465 60.811-63.057 107.304-59.298 63.36 5.124 110.569 60.669 105.442 124.064-5.127 63.396-60.647 110.633-124.007 105.51-46.492-3.76-82.545-34.546-96.382-75.769 16.85 36.86 55.172 64.299 97.036 67.684z" stroke="#00AE99" stroke-width="3">
	</path>
	<path d="M181.085 244.176c21.684-3.259 41.834-15.211 55.761-31.712 5.856-6.938 10.626-14.698 13.946-22.973-7.901 32.067-33.187 57.36-68.508 62.667-47.872 7.194-92.459-25.538-99.604-73.086-7.145-47.548 25.852-91.939 73.724-99.133 35.322-5.307 66.924 11.437 83.901 39.766-5.606-6.934-12.446-12.95-20.082-17.861-18.162-11.678-40.934-17.18-62.619-13.922-43.408 6.523-73.357 46.783-66.872 89.94 6.485 43.157 46.945 72.837 90.353 66.314z" stroke="#00AE99" stroke-width="3">
	</path>
</svg>
