<svg width="261" height="286" viewBox="0 0 261 286" fill="none" xmlns="http://www.w3.org/2000/svg">
	<path d="M243.445 24.188l.437-2.625-2.471.985-57.596 22.95-1.938.771 1.349 1.592 44.952 53.021 2.092 2.469.532-3.192 12.643-75.971zm-12.402 108.008l-.627-2.319-1.809 1.581-74.789 65.387 1.386 2.575 86.042-23.749 1.439-.397-.39-1.44-11.252-41.638zM41.1 110.751l-1.841 2.41h183.719l-2.094-2.47-51.205-60.4-.449-.53H87.681l-.45.59-46.131 60.4zm173.696 16.963l3.008-2.629H41.388l3.073 2.638 84.958 72.921.986.846.979-.855 83.412-72.921zM74.168 47.844l1.176-1.54-1.786-.752-53.88-22.7-2.506-1.056.443 2.683 12.66 76.67.565 3.424 2.106-2.758 41.222-53.97zm31.128 151.553l1.372-2.585-74.96-64.336-1.763-1.513-.653 2.23-11.902 40.63-.43 1.467 1.474.402 86.862 23.705zm17.545 19.405l1.642-1.811-2.358-.644-61.88-16.888-1.18 2.726a271.562 271.562 0 0 1 45.232 34.777l1.113 1.059 1.033-1.138 16.398-18.081zm79.216-16.898l-1.193-2.719-62.102 17.139-2.363.653 1.656 1.807 16.745 18.271 1.041 1.136 1.108-1.071a271.479 271.479 0 0 1 45.108-35.216zM170.551 37.837h.288l.268-.107 87.976-35.057L239.804 118.5l-.054.322.085.316 17.044 63.059-47.182 28.995v.001a259.126 259.126 0 0 0-59.92 50.769l-18.928 21.755-17.981-20.624a259.177 259.177 0 0 0-62.233-52.084l-.771 1.287.77-1.287-48.09-28.812 18.488-63.117.096-.328-.056-.338L1.922 2.438l83.745 35.281.28.118H170.55z" stroke="#00AE99" stroke-width="3">
	</path>
</svg>
