<svg width="128" height="28" viewBox="0 0 128 28" fill="none" xmlns="http://www.w3.org/2000/svg">
	<path d="M25.328 5.303a.643.643 0 0 0-.96-.045l-4.69 4.672c-.23.23-.256.591-.092.873a5.833 5.833 0 0 1 0 5.862c-.164.282-.138.643.093.873l4.689 4.673a.643.643 0 0 0 .96-.046 13.623 13.623 0 0 0 0-16.862zm-19.32-2.39a.638.638 0 0 0-.045.958l4.69 4.672c.23.23.593.256.875.093a5.884 5.884 0 0 1 5.883 0c.282.163.645.137.876-.093l4.689-4.673a.639.639 0 0 0-.046-.957 13.746 13.746 0 0 0-16.921 0zm12.279 16.012c-.231-.23-.594-.256-.876-.093a5.884 5.884 0 0 1-5.883 0c-.283-.163-.645-.137-.876.093l-4.689 4.673a.638.638 0 0 0 .046.957 13.745 13.745 0 0 0 16.921 0 .638.638 0 0 0 .046-.957l-4.69-4.673zm-8.934-8.122c.164-.282.138-.643-.093-.873L4.571 5.258a.644.644 0 0 0-.961.045 13.623 13.623 0 0 0 0 16.863.644.644 0 0 0 .961.045l4.69-4.673c.23-.23.256-.591.092-.873a5.832 5.832 0 0 1 0-5.862zM34.737 20.121h4.982c4.59 0 7.65-2.64 7.65-6.619 0-3.979-3.06-6.62-7.65-6.62h-4.982v13.24zm3.023-2.417V9.3h1.959c2.724 0 4.571 1.636 4.571 4.202 0 2.585-1.847 4.202-4.571 4.202h-1.96zm15.675 2.715c2.313 0 4.16-1.041 4.758-2.752l-2.351-.595c-.41.781-1.232 1.302-2.295 1.302-1.362 0-2.314-.874-2.538-2.213h7.5c.038-.205.038-.595.038-.837 0-2.993-2.09-5.02-5.13-5.02-3.08 0-5.263 2.008-5.263 4.983 0 3.068 2.183 5.132 5.28 5.132zM50.99 14.45c.223-1.264 1.1-2.1 2.35-2.1 1.288 0 2.22.892 2.389 2.1h-4.74zm8.974 5.671h3.116V14.86h5.598v-2.417H63.08v-2.92h6.4v-2.64h-9.516v13.24zM71.97 9.281c.97 0 1.661-.669 1.661-1.617 0-.93-.69-1.618-1.66-1.618s-1.661.688-1.661 1.618c0 .948.69 1.617 1.66 1.617zm-1.38 10.84h2.761v-9.52H70.59v9.52zm14.096.465c3.228 0 5.112-1.543 5.112-3.997 0-2.975-2.705-3.496-5.093-3.887-1.94-.297-3.695-.613-3.695-2.342 0-1.413 1.157-2.324 3.284-2.324 2.258 0 3.564 1.097 3.564 2.956h1.642c-.019-2.77-1.978-4.444-5.206-4.444-3.172 0-4.982 1.543-4.982 3.905 0 2.845 2.613 3.458 4.982 3.83 1.978.316 3.806.614 3.806 2.417 0 1.469-1.25 2.399-3.395 2.399-2.463 0-3.9-1.209-3.919-3.236h-1.679c0 2.92 2.127 4.723 5.579 4.723zm9.675-.167c1.511 0 2.612-.595 3.284-1.674h.168v1.376h1.548v-6.228c0-2.139-1.548-3.515-3.993-3.515-2.37 0-3.918 1.265-3.918 3.254h1.567c-.018-1.171.915-1.86 2.333-1.86 1.548 0 2.463.819 2.463 2.083v.372l-2.613.316c-2.798.316-4.216 1.544-4.216 3.198 0 1.618 1.343 2.678 3.377 2.678zm.224-1.283c-1.27 0-2.053-.54-2.053-1.432 0-.874.747-1.617 2.668-1.86l2.613-.297v.837c0 1.58-1.307 2.752-3.228 2.752zm9.25.985h2.201l3.583-9.39h-1.586l-3.023 8.163h-.168l-3.004-8.162h-1.586l3.583 9.39zm11.299.372c2.09 0 3.788-.967 4.553-2.566l-1.288-.65c-.597 1.115-1.828 1.822-3.227 1.822-1.922 0-3.303-1.265-3.527-3.161h8.341c.018-.205.018-.428.018-.614 0-2.882-2.071-4.964-4.944-4.964-2.911 0-5.001 2.082-5.001 4.946 0 3.012 2.127 5.187 5.075 5.187zm-3.47-5.912c.261-1.692 1.586-2.827 3.321-2.827 1.791 0 3.116 1.135 3.396 2.827h-6.717zm10.164 5.54h1.549v-5.057c0-1.86.989-3.124 2.407-3.124.354 0 .914.075 1.399.28v-1.433c-.28-.148-.727-.241-1.157-.241-1.044 0-2.089.595-2.519 1.45h-.167v-1.264h-1.512v9.39z" fill="#fff">
	</path>
</svg>
