<svg width="104" height="21" viewBox="0 0 104 21" fill="none" xmlns="http://www.w3.org/2000/svg">
	<path d="M20.474 0v20.617H16.96V5.92l-6.509 10.368h-.428L3.514 5.89v14.726H0V0h3.79l6.447 10.309L16.716 0h3.758zM36.627 5.89h3.3v14.727h-3.3v-2.12C35.384 20.166 33.602 21 31.28 21c-2.098 0-3.89-.746-5.378-2.238-1.487-1.512-2.23-3.348-2.23-5.508 0-2.18.743-4.015 2.23-5.508 1.487-1.492 3.28-2.238 5.378-2.238 2.323 0 4.105.825 5.348 2.474V5.891zm-8.281 10.751c.916.884 2.067 1.326 3.453 1.326 1.385 0 2.536-.442 3.453-1.326.917-.903 1.375-2.032 1.375-3.387s-.458-2.474-1.375-3.358c-.917-.903-2.068-1.354-3.453-1.354-1.386 0-2.537.451-3.453 1.354-.917.884-1.375 2.003-1.375 3.358s.458 2.484 1.375 3.387zM52.3 8.954h-3.789v7.069c0 .608.143 1.05.428 1.325.285.255.703.403 1.253.442.57.02 1.273.01 2.108-.03v2.857c-2.526.295-4.339.089-5.44-.618-1.1-.727-1.65-2.052-1.65-3.976V8.954H42.4V5.891h2.81V2.71l3.301-.943v4.124h3.79v3.063zM61.879 21c-2.302 0-4.227-.746-5.776-2.238-1.528-1.492-2.292-3.328-2.292-5.508 0-2.2.764-4.035 2.292-5.508 1.549-1.492 3.474-2.238 5.776-2.238 1.487 0 2.842.344 4.064 1.03 1.223.688 2.14 1.61 2.75 2.77l-2.841 1.59a3.717 3.717 0 0 0-1.59-1.65c-.692-.412-1.497-.618-2.414-.618-1.344 0-2.475.442-3.392 1.325-.896.884-1.344 1.983-1.344 3.3 0 1.315.448 2.414 1.344 3.298.917.883 2.048 1.325 3.392 1.325.897 0 1.702-.206 2.415-.618.733-.413 1.283-.962 1.65-1.65l2.842 1.561c-.652 1.178-1.59 2.111-2.812 2.798C64.721 20.657 63.366 21 61.88 21zM79.177 5.508c1.752 0 3.168.54 4.248 1.62s1.62 2.562 1.62 4.447v9.042h-3.3V11.9c0-1.1-.306-1.944-.918-2.533-.61-.589-1.446-.883-2.505-.883-1.162 0-2.099.353-2.812 1.06-.713.687-1.07 1.748-1.07 3.18v7.894h-3.3V0h3.3v7.776c.999-1.512 2.578-2.268 4.737-2.268zM100.7 5.89h3.3v14.727h-3.3v-2.12C99.457 20.166 97.674 21 95.352 21c-2.099 0-3.891-.746-5.379-2.238-1.487-1.512-2.23-3.348-2.23-5.508 0-2.18.743-4.015 2.23-5.508 1.488-1.492 3.28-2.238 5.379-2.238 2.322 0 4.105.825 5.348 2.474V5.891zm-8.282 10.751c.917.884 2.068 1.326 3.453 1.326 1.386 0 2.537-.442 3.454-1.326.916-.903 1.375-2.032 1.375-3.387s-.459-2.474-1.376-3.358c-.916-.903-2.067-1.354-3.453-1.354-1.385 0-2.536.451-3.453 1.354-.917.884-1.375 2.003-1.375 3.358s.458 2.484 1.375 3.387z" fill="#fff">
	</path>
</svg>
