<svg width="151" height="23" viewBox="0 0 151 23" fill="none" xmlns="http://www.w3.org/2000/svg">
	<path d="M131.742 12.11c-.843-.556-1.773-.952-2.653-1.447-.571-.321-1.179-.606-1.674-1.014-.844-.692-.67-2.053.211-2.647 1.264-.84 3.36-.37 3.583 1.349 0 .037.037.061.074.061h1.91c.05 0 .087-.037.075-.086-.099-1.188-.559-2.177-1.401-2.808-.807-.606-1.724-.927-2.705-.927-5.046 0-5.505 5.33-2.79 7.012.311.198 2.977 1.534 3.92 2.115.942.582 1.24 1.645.83 2.486-.372.767-1.339 1.299-2.306 1.237-1.055-.062-1.873-.63-2.158-1.521-.05-.16-.075-.47-.075-.606 0-.037-.037-.074-.074-.074h-2.07c-.038 0-.075.037-.075.074 0 1.496.372 2.325 1.389 3.08.955.717 1.996 1.014 3.075 1.014 2.828 0 4.291-1.596 4.588-3.253.26-1.62-.223-3.08-1.674-4.045zM41.83 4.863h-1.923a.084.084 0 0 0-.074.05l-1.699 5.59a.078.078 0 0 1-.149 0l-1.699-5.59c-.012-.038-.037-.05-.074-.05H33.05c-.037 0-.074.037-.074.074V19.21c0 .037.037.074.074.074h2.07c.038 0 .075-.037.075-.074V8.363c0-.087.124-.099.15-.025l1.71 5.628.124.396c.013.037.037.05.075.05h1.587a.084.084 0 0 0 .074-.05l.124-.396 1.712-5.628c.024-.086.148-.062.148.025V19.21c0 .037.038.074.075.074h2.07c.038 0 .075-.037.075-.074V4.937c0-.037-.037-.074-.075-.074H41.83zM100.034 4.863a.084.084 0 0 0-.074.05l-1.698 5.59a.078.078 0 0 1-.15 0l-1.698-5.59c-.013-.038-.038-.05-.075-.05h-3.15c-.037 0-.074.037-.074.074V19.21c0 .037.037.074.074.074h2.072c.037 0 .074-.037.074-.074V8.363c0-.087.124-.099.15-.025l1.71 5.628.124.396c.012.037.037.05.074.05h1.587a.084.084 0 0 0 .075-.05l.124-.396 1.711-5.628c.025-.086.149-.062.149.025V19.21c0 .037.037.074.075.074h2.07c.037 0 .074-.037.074-.074V4.937c0-.037-.037-.074-.074-.074h-3.15zM73.325 4.863H63.542c-.037 0-.075.037-.075.074v1.781c0 .037.038.074.075.074h3.782V19.21a.08.08 0 0 0 .074.074h2.071c.037 0 .074-.037.074-.074V6.792h3.782a.08.08 0 0 0 .075-.074V4.937c0-.037-.025-.074-.075-.074zM85.539 19.284h1.884c.05 0 .087-.05.074-.099L83.604 4.863c-.013-.037-.037-.05-.075-.05H80.826a.084.084 0 0 0-.074.05l-3.894 14.322c-.012.05.025.1.075.1h1.884a.084.084 0 0 0 .075-.05l1.128-4.168c.013-.037.037-.05.075-.05h4.166c.038 0 .063.025.075.05l1.128 4.168c.013.024.05.05.075.05zm-4.948-6.308l1.513-5.578a.078.078 0 0 1 .148 0l1.513 5.578c.013.05-.025.1-.074.1h-3.026c-.05 0-.087-.05-.074-.1zM117.68 19.284h1.885c.049 0 .086-.05.074-.099l-3.893-14.322c-.013-.037-.038-.05-.075-.05H112.968a.083.083 0 0 0-.074.05L109 19.185c-.012.05.025.1.075.1h1.885a.083.083 0 0 0 .074-.05l1.128-4.168c.013-.037.038-.05.075-.05h4.166c.037 0 .062.025.075.05l1.128 4.168c.012.024.037.05.074.05zm-4.948-6.308l1.513-5.578a.078.078 0 0 1 .149 0l1.513 5.578c.012.05-.025.1-.075.1h-3.025c-.05 0-.087-.05-.075-.1zM51.526 17.17V12.74c0-.037.037-.074.074-.074h5.518c.038 0 .075-.037.075-.074v-1.781c0-.037-.037-.074-.075-.074H51.6a.08.08 0 0 1-.074-.075V6.88c0-.037.037-.074.074-.074h6.275c.037 0 .074-.038.074-.075V4.95c0-.038-.037-.075-.074-.075H49.38c-.038 0-.075.037-.075.074V19.21a.08.08 0 0 0 .075.074h8.755c.036 0 .074-.037.074-.074v-1.88c0-.037-.038-.074-.075-.074h-6.547c-.037-.013-.062-.038-.062-.087zM150.664 19.16l-7.167-7.383a.074.074 0 0 1 0-.1L149.945 5a.071.071 0 0 0-.049-.124h-2.641c-.025 0-.038.012-.05.025l-5.468 5.665a.072.072 0 0 1-.124-.05V4.949c0-.037-.038-.074-.075-.074h-2.071c-.037 0-.075.037-.075.074v14.273c0 .037.038.075.075.075h2.071c.037 0 .075-.038.075-.075V12.94c0-.062.086-.099.124-.05l6.199 6.383a.095.095 0 0 0 .05.025h2.641c.05-.013.087-.1.037-.137z" fill="#fff">
	</path>
	<path d="M22.716 1l-8.924 6.604 1.66-3.892L22.715 1zM2.131 1l8.845 6.665-1.58-3.953L2.131 1zM19.502 16.311l-2.374 3.628 5.084 1.4 1.457-4.948-4.167-.08zM1.186 16.39l1.448 4.949 5.076-1.4-2.366-3.628-4.158.08z" stroke="#fff" stroke-width=".75" stroke-linecap="round" stroke-linejoin="round">
	</path>
	<path d="M7.435 10.184l-1.412 2.13 5.032.23-.168-5.415-3.452 3.055zM17.411 10.184l-3.504-3.117-.115 5.476 5.031-.229-1.412-2.13zM7.709 19.94l3.045-1.47-2.621-2.043-.424 3.512zM14.092 18.47l3.037 1.47-.415-3.514-2.622 2.043z" stroke="#fff" stroke-width=".75" stroke-linecap="round" stroke-linejoin="round">
	</path>
	<path d="M17.129 19.938l-3.037-1.47.247 1.972-.026.837 2.816-1.339zM7.709 19.938l2.825 1.339-.018-.837.238-1.972-3.045 1.47z" stroke="#fff" stroke-width=".75" stroke-linecap="round" stroke-linejoin="round">
	</path>
	<path d="M10.587 15.123l-2.525-.74 1.783-.818.742 1.558zM14.26 15.123l.74-1.558 1.793.818-2.534.74z" fill="#fff" stroke="#233447" stroke-width=".75" stroke-linecap="round" stroke-linejoin="round">
	</path>
	<path d="M7.71 19.939l.441-3.628-2.807.08 2.366 3.548zM16.695 16.311l.433 3.628 2.375-3.548-2.808-.08zM18.823 12.314l-5.031.23.468 2.58.741-1.56 1.792.82 2.03-2.07zM8.062 14.383l1.783-.818.742 1.558.468-2.58-5.032-.229 2.04 2.07z" stroke="#fff" stroke-width=".75" stroke-linecap="round" stroke-linejoin="round">
	</path>
	<path d="M6.024 12.314l2.11 4.112-.07-2.043-2.04-2.069zM16.793 14.383l-.08 2.043 2.11-4.112-2.03 2.07z" stroke="#fff" stroke-width=".75" stroke-linecap="round" stroke-linejoin="round">
	</path>
	<path d="M14.26 15.123l-.591 3.046.424.3 2.621-2.043.08-2.043-2.534.74zM8.062 14.383l.07 2.043 2.622 2.042.424-.299-.591-3.046-2.525-.74zM14.312 21.277l.026-.837-.23-.193h-3.371l-.221.194.018.836-2.825-1.338.988.81 2.004 1.382h3.434l2.013-1.382.98-.81-2.816 1.338z" stroke="#fff" stroke-width=".75" stroke-linecap="round" stroke-linejoin="round">
	</path>
	<path d="M14.092 18.469l-.424-.3H11.18l-.424.3-.238 1.972.22-.194h3.373l.23.194-.248-1.972z" fill="#fff">
	</path>
	<path d="M23.096 8.035l.75-3.645L22.717 1l-8.624 6.384 3.32 2.8 4.687 1.364 1.033-1.206-.45-.326.714-.651-.547-.423.715-.546-.468-.36zM1 4.39l.76 3.645-.486.361.723.546-.547.423.715.651-.45.326 1.033 1.206 4.687-1.364 3.32-2.8L2.13 1 1 4.39zM22.099 11.549l-4.688-1.365 1.412 2.13-2.11 4.113 2.79-.035h4.167l-1.572-4.843zM7.436 10.184L2.749 11.55l-1.563 4.843h4.158l2.79.035-2.11-4.112 1.412-2.13z" stroke="#fff" stroke-width=".75" stroke-linecap="round" stroke-linejoin="round">
	</path>
	<path d="M13.792 12.543l.3-5.16 1.36-3.671H9.395l1.359 3.671.3 5.16.115 1.62.009 4.006h2.489l.009-4.006.115-1.62z" stroke="#fff" stroke-width=".75" stroke-linecap="round" stroke-linejoin="round">
	</path>
</svg>
