<svg width="82" height="21" viewBox="0 0 82 21" fill="none" xmlns="http://www.w3.org/2000/svg">
	<path d="M4.23 20.973H.307V.539h.942l1.555 1.782c.351-.322.737-.626 1.155-.912.419-.285.851-.53 1.298-.732A7.774 7.774 0 0 1 6.67.18C7.155.06 7.644 0 8.139 0c1.075 0 2.083.19 3.024.567a7.314 7.314 0 0 1 4.166 4.048c.409.958.613 2.021.613 3.191 0 1.216-.204 2.312-.613 3.288a7.313 7.313 0 0 1-1.684 2.473 7.265 7.265 0 0 1-2.482 1.548c-.941.359-1.95.538-3.024.538-.342 0-.685-.036-1.027-.11a8.168 8.168 0 0 1-.999-.29 14.851 14.851 0 0 1-.97-.428 20.891 20.891 0 0 1-.913-.484v6.632zm7.803-13.167c0-.626-.104-1.188-.313-1.685a3.58 3.58 0 0 0-.828-1.258 3.564 3.564 0 0 0-1.24-.8 4.15 4.15 0 0 0-1.513-.277 4.15 4.15 0 0 0-1.512.276 3.595 3.595 0 0 0-1.227.801c-.352.341-.633.76-.842 1.258-.2.497-.3 1.059-.3 1.685 0 .599.1 1.147.3 1.644.21.498.49.921.842 1.271.352.35.76.622 1.227.815.475.194.98.29 1.512.29.533 0 1.037-.096 1.512-.29.476-.193.89-.465 1.241-.815.352-.35.628-.773.828-1.27.209-.498.313-1.046.313-1.645zM22.005 15.336h-3.894V.539h.941l1.284 1.755a6.737 6.737 0 0 1 2.14-1.271 6.923 6.923 0 0 1 2.482-.456h3.438v3.758h-3.438a3.03 3.03 0 0 0-1.155.22c-.362.148-.676.35-.942.609a2.821 2.821 0 0 0-.856 2.03v8.152zM33.774 20.973v-3.8l2.169.028c.38 0 .746-.06 1.098-.18.352-.12.675-.285.97-.497.304-.212.57-.465.799-.76a3.92 3.92 0 0 0 .556-.94c-.428.176-.865.35-1.312.526-.438.175-.88.262-1.327.262a7.243 7.243 0 0 1-2.653-.483 6.716 6.716 0 0 1-2.183-1.368 6.564 6.564 0 0 1-1.47-2.17c-.351-.856-.527-1.814-.527-2.873V.539h3.88v8.179c0 .525.076.986.228 1.382.162.386.376.713.642.98.267.258.576.452.928.58.361.13.746.194 1.155.194.4 0 .775-.087 1.127-.262a3.24 3.24 0 0 0 .942-.719c.266-.294.475-.626.627-.994a3.08 3.08 0 0 0 .229-1.161V.539h3.923v12.932a7.243 7.243 0 0 1-.628 2.929 7.542 7.542 0 0 1-1.683 2.39 7.928 7.928 0 0 1-2.468 1.616A7.72 7.72 0 0 1 35.77 21l-1.997-.027zM54.944 15.336h-8.901v-3.758h8.901a.95.95 0 0 0 .685-.276.89.89 0 0 0 .285-.664c0-.267-.095-.442-.285-.525a1.708 1.708 0 0 0-.685-.124h-4.051a4.832 4.832 0 0 1-1.897-.373 4.961 4.961 0 0 1-1.541-1.009 4.96 4.96 0 0 1-1.041-1.505 4.574 4.574 0 0 1-.371-1.838c0-.654.123-1.266.37-1.837a4.79 4.79 0 0 1 1.042-1.493 4.768 4.768 0 0 1 1.54-.994 4.832 4.832 0 0 1 1.898-.373h7.889v3.758h-7.89a.95.95 0 0 0-.684.276.89.89 0 0 0-.285.663c0 .267.095.497.285.69a.95.95 0 0 0 .685.277h4.051c.666 0 1.294.11 1.883.332.59.212 1.104.51 1.541.898.438.387.785.852 1.041 1.395a4.12 4.12 0 0 1 .386 1.782 4.43 4.43 0 0 1-.386 1.838 5.016 5.016 0 0 1-1.04 1.492c-.438.424-.952.76-1.542 1.009-.59.239-1.217.359-1.883.359zM81.307 15.336h-3.88V5.94a1.75 1.75 0 0 0-.157-.732 1.788 1.788 0 0 0-.414-.608 1.857 1.857 0 0 0-.627-.4 1.909 1.909 0 0 0-.757-.153c-.266 0-.518.05-.756.152a1.894 1.894 0 0 0-.613.4c-.171.176-.31.379-.414.609a1.9 1.9 0 0 0-.142.732v9.395h-3.895V5.94a1.75 1.75 0 0 0-.157-.732 1.788 1.788 0 0 0-.413-.608 1.856 1.856 0 0 0-.628-.4 1.908 1.908 0 0 0-.756-.153c-.266 0-.519.05-.756.152a1.893 1.893 0 0 0-.614.4c-.17.176-.309.379-.413.609a1.9 1.9 0 0 0-.143.732v9.395h-3.895V.539h.942l1.056 1.133A6.225 6.225 0 0 1 65.658.65a5.79 5.79 0 0 1 4.123.014c.684.257 1.283.704 1.797 1.34a3.89 3.89 0 0 1 .813-.802c.304-.22.623-.4.956-.539a4.718 4.718 0 0 1 1.056-.29 6.083 6.083 0 0 1 1.07-.096c.808 0 1.564.147 2.268.442.713.294 1.331.7 1.854 1.215a5.525 5.525 0 0 1 1.712 4.007v9.395z" fill="#fff">
	</path>
</svg>
