<svg width="160" height="32" viewBox="0 0 160 32" fill="none" xmlns="http://www.w3.org/2000/svg">
	<path d="M39.663 9.732h4.924c.646 0 1.257.065 1.832.193a4.125 4.125 0 0 1 1.528.615c.443.281.79.668 1.042 1.16.264.48.395 1.082.395 1.808 0 .878-.233 1.628-.7 2.248-.468.609-1.15.995-2.05 1.159l3.235 5.25h-3.36l-2.66-4.969h-1.383v4.97h-2.803V9.732zm2.803 5.146h1.653c.252 0 .515-.006.79-.018.288-.023.546-.076.773-.158.228-.093.414-.234.558-.421.155-.188.233-.45.233-.79 0-.317-.066-.568-.197-.756a1.241 1.241 0 0 0-.504-.421 2.13 2.13 0 0 0-.7-.21 5.851 5.851 0 0 0-.773-.053h-1.833v2.827zM55.502 9.732h2.318l5.534 12.434h-3.162l-1.096-2.634h-4.942l-1.06 2.634h-3.09l5.498-12.434zm1.078 3.618l-1.545 3.864h3.108L56.58 13.35zM64.634 9.732h4.924a8.37 8.37 0 0 1 1.832.193 4.125 4.125 0 0 1 1.528.615c.443.281.79.668 1.042 1.16.263.48.395 1.082.395 1.808 0 .878-.233 1.628-.7 2.248-.468.609-1.15.995-2.049 1.159l3.234 5.25h-3.36l-2.66-4.969h-1.383v4.97h-2.803V9.732zm2.803 5.146h1.653c.252 0 .515-.006.79-.018.288-.023.546-.076.774-.158.227-.093.413-.234.557-.421.155-.188.233-.45.233-.79 0-.317-.066-.568-.198-.756a1.24 1.24 0 0 0-.503-.421 2.128 2.128 0 0 0-.7-.21 5.85 5.85 0 0 0-.773-.053h-1.833v2.827zM76.25 9.732h2.803v12.434H76.25V9.732zM95.24 12.963a2.727 2.727 0 0 0-1.025-.755c-.395-.175-.856-.263-1.384-.263-.527 0-1.018.1-1.473.298-.443.2-.833.48-1.168.843a3.974 3.974 0 0 0-.773 1.265 4.622 4.622 0 0 0-.27 1.598c0 .585.09 1.124.27 1.616.192.48.45.901.773 1.264.323.351.7.627 1.132.825.443.2.916.3 1.42.3.575 0 1.084-.118 1.527-.352a3.015 3.015 0 0 0 1.096-.984l2.336 1.704a4.843 4.843 0 0 1-2.048 1.633 6.465 6.465 0 0 1-2.552.527c-.994 0-1.91-.152-2.75-.457a6.39 6.39 0 0 1-2.174-1.3 6.12 6.12 0 0 1-1.437-2.072c-.335-.807-.503-1.709-.503-2.704 0-.995.168-1.897.503-2.704a5.937 5.937 0 0 1 1.438-2.055 6.247 6.247 0 0 1 2.174-1.317c.838-.305 1.755-.457 2.749-.457.36 0 .73.035 1.114.105.395.059.779.158 1.15.299.383.14.749.328 1.096.562.348.234.66.52.935.86l-2.157 1.721zM103.407 9.732h2.319l5.534 12.434h-3.163l-1.096-2.634h-4.941L101 22.166h-3.09l5.497-12.434zm1.078 3.618l-1.545 3.864h3.109l-1.564-3.864zM112.539 9.732h4.726c.66 0 1.282.059 1.87.176a4.135 4.135 0 0 1 1.527.615c.442.28.79.667 1.042 1.159.263.48.395 1.088.395 1.826 0 .726-.12 1.335-.359 1.827-.24.491-.57.883-.988 1.176-.42.293-.917.504-1.492.632a9.36 9.36 0 0 1-1.869.176h-2.049v4.847h-2.803V9.732zm2.803 5.269h1.87c.251 0 .491-.024.718-.07.24-.047.45-.123.629-.229.191-.117.341-.27.449-.456.12-.2.18-.445.18-.738 0-.316-.077-.568-.233-.755a1.374 1.374 0 0 0-.575-.457 2.272 2.272 0 0 0-.774-.193 6.802 6.802 0 0 0-.825-.053h-1.439V15zM123.822 9.732h2.804v12.434h-2.804V9.732zM131.637 12.156h-3.63V9.732h10.063v2.424h-3.63v10.01h-2.803v-10.01zM142.031 9.732h2.317l5.535 12.434h-3.163l-1.096-2.634h-4.941l-1.061 2.634h-3.091l5.5-12.434zm1.078 3.618l-1.546 3.864h3.109l-1.563-3.864zM151.27 9.732h2.804v9.905h5.192v2.529h-7.996V9.732z" fill="#fff">
	</path>
	<path fill-rule="evenodd" clip-rule="evenodd" d="M15.704 30.335c8.08 0 14.63-6.55 14.63-14.63 0-8.08-6.55-14.631-14.63-14.631-8.08 0-14.63 6.55-14.63 14.63 0 8.08 6.55 14.63 14.63 14.63zm0 1.074c8.674 0 15.705-7.031 15.705-15.705C31.409 7.031 24.378 0 15.704 0 7.031 0 0 7.031 0 15.704 0 24.378 7.031 31.41 15.704 31.41z" fill="url(#a)">
	</path>
	<path fill-rule="evenodd" clip-rule="evenodd" d="M15.838 26.845c-6.152 0-11.14-4.988-11.14-11.14 0-6.153 4.988-11.141 11.14-11.141 6.153 0 11.141 4.988 11.141 11.14 0 6.153-4.988 11.141-11.14 11.141zm0 1.074c-6.745 0-12.214-5.469-12.214-12.215 0-6.746 5.469-12.214 12.214-12.214 6.746 0 12.215 5.468 12.215 12.214S22.584 27.92 15.838 27.92z" fill="url(#b)">
	</path>
	<path fill-rule="evenodd" clip-rule="evenodd" d="M15.839 24.16a8.322 8.322 0 1 0 0-16.643 8.322 8.322 0 0 0 0 16.644zm0 1.074a9.396 9.396 0 1 0 0-18.791 9.396 9.396 0 0 0 0 18.791z" fill="url(#c)">
	</path>
	<path fill-rule="evenodd" clip-rule="evenodd" d="M15.704 30.335c8.08 0 14.63-6.55 14.63-14.63 0-8.08-6.55-14.631-14.63-14.631-8.08 0-14.63 6.55-14.63 14.63 0 8.08 6.55 14.63 14.63 14.63zm0 1.074c8.674 0 15.705-7.031 15.705-15.705C31.409 7.031 24.378 0 15.704 0 7.031 0 0 7.031 0 15.704 0 24.378 7.031 31.41 15.704 31.41z" fill="url(#d)">
	</path>
	<defs>
		<linearGradient id="a" y1="15.704" x2="30.79" y2="15.704" gradientUnits="userSpaceOnUse">
			<stop stop-color="#fff">
			</stop>
			<stop offset="1" stop-color="#fff" stop-opacity="0">
			</stop>
		</linearGradient>
		<linearGradient id="b" x1="33.535" y1="15.704" x2="4.105" y2="15.704" gradientUnits="userSpaceOnUse">
			<stop stop-color="#fff">
			</stop>
			<stop offset="1" stop-color="#fff" stop-opacity="0">
			</stop>
		</linearGradient>
		<linearGradient id="c" x1="2.226" y1="15.839" x2="24.864" y2="15.839" gradientUnits="userSpaceOnUse">
			<stop stop-color="#fff">
			</stop>
			<stop offset="1" stop-color="#fff" stop-opacity="0">
			</stop>
		</linearGradient>
		<linearGradient id="d" y1="15.704" x2="30.79" y2="15.704" gradientUnits="userSpaceOnUse">
			<stop stop-color="#fff">
			</stop>
			<stop offset="1" stop-color="#fff" stop-opacity="0">
			</stop>
		</linearGradient>
	</defs>
</svg>
