<svg width="136" height="25" viewBox="0 0 136 25" fill="none" xmlns="http://www.w3.org/2000/svg">
	<g clip-path="url(#a)" fill-rule="evenodd" clip-rule="evenodd" fill="#fff">
		<path d="M118.354 18.57h1.783V7.964h-1.783v10.604zM118.354 6.583h1.783V4.8h-1.783v1.783zM36.048 4.698c-1.938 0-4.006.762-4.006 2.613 0 1.655 1.894 2.134 4.137 2.504 3.048.48 6.053 1.09 6.053 4.53-.022 3.418-3.288 4.529-6.206 4.529-2.7 0-5.27-.98-6.445-3.528l1.568-.914c.98 1.807 3.026 2.678 4.9 2.678 1.85 0 4.31-.588 4.31-2.83.022-1.895-2.112-2.44-4.398-2.788-2.94-.457-5.792-1.132-5.792-4.224C30.125 4.088 33.369 3 36.004 3c2.265 0 4.42.457 5.77 2.765l-1.436.893c-.828-1.328-2.592-1.938-4.29-1.96zM45.452 3.355v6.25c.915-1.415 2.352-1.894 3.724-1.916 3.026 0 4.507 2.003 4.507 4.964v5.923h-1.764v-5.9c0-2.113-1.089-3.31-3.048-3.31-1.96 0-3.397 1.545-3.397 3.505v5.705h-1.786V3.334h1.764v.021zM60.786 9.336c-2.134 0-3.854 1.525-3.854 3.92s1.72 3.94 3.854 3.94c5.182 0 5.182-7.882.022-7.882l-.022.022zm3.92 9.276l-.044-1.96c-.85 1.481-2.483 2.178-3.963 2.178-3.092 0-5.51-2.134-5.51-5.64 0-3.483 2.462-5.574 5.532-5.552 1.611 0 3.2.74 3.984 2.134l.022-1.96h1.742v10.757h-1.72l-.044.043zM77.609 13.256c0-2.417-1.59-3.854-3.79-3.854-2.242 0-3.767 1.655-3.767 3.854 0 2.2 1.59 3.854 3.768 3.876 2.155 0 3.789-1.459 3.789-3.876zm-9.494-5.4h1.698l.087 2.069c.85-1.437 2.44-2.265 4.137-2.265 3.092.065 5.357 2.243 5.357 5.553 0 3.397-2.243 5.596-5.466 5.596-1.524 0-3.222-.653-4.071-2.178v7.012h-1.742V7.856zM89.813 12.407c-.087-2.09-1.524-3.223-3.636-3.223-1.873 0-3.506 1.133-3.81 3.201h7.446v.022zm1.046 4.442c-1.09 1.285-2.962 1.916-4.639 1.916-3.331 0-5.661-2.199-5.661-5.618 0-3.244 2.33-5.574 5.574-5.574 3.288 0 5.792 2.025 5.379 6.315h-9.146c.196 1.981 1.83 3.222 3.898 3.222 1.22 0 2.7-.479 3.419-1.35l1.197 1.09h-.021zM98.974 4.698c-1.938 0-4.007.762-4.007 2.613 0 1.655 1.894 2.134 4.137 2.504 3.049.48 6.054 1.09 6.054 4.53-.022 3.418-3.288 4.529-6.206 4.529-2.7 0-5.27-.98-6.446-3.528l1.568-.914c.98 1.807 3.027 2.678 4.9 2.678 1.85 0 4.311-.588 4.311-2.83.022-1.895-2.112-2.44-4.399-2.788-2.94-.457-5.792-1.132-5.792-4.224C93.051 4.088 96.295 3 98.93 3c2.265 0 4.42.457 5.77 2.765l-1.437.893c-.827-1.328-2.591-1.938-4.29-1.96zM108.339 3.349v6.249c.915-1.415 2.352-1.895 3.724-1.916 3.027 0 4.507 2.003 4.507 4.964v5.923h-1.763v-5.9c0-2.113-1.089-3.31-3.049-3.31s-3.397 1.545-3.397 3.505v5.705h-1.785V3.327h1.763v.022zM123.544 18.622v-.02h-.021l.021.02zM125.659 7.094c0-1.612.74-2.33 1.895-2.33l.067.002.402-1.534a3.994 3.994 0 0 0-.513-.036c-2.264 0-3.614 1.437-3.614 3.898v.849h-2.113V9.51h2.113v9.058h1.763V9.51h2.137V7.943h-2.137v-.85zM134.76 17.075c-.141.022-.28.035-.414.035-1.285 0-1.698-.806-1.698-2.069V9.497h2.291V7.95h-2.27V4.677l-1.785.195V7.95h-2.156v1.547h2.156v5.544c0 2.374 1.089 3.724 3.397 3.68.285-.009.559-.042.831-.098l-.352-1.548zM21.323 2.093l-1.115 6.64-3.96-4.634 5.075-2.006zm-1.09 9.497l.991 3.64-7.582 2.075 6.59-5.715zM3.727 9.76l4.065-5.28h7.06l4.512 5.28H3.727zm15.114 1.305l-7.35 6.374-7.487-6.374H18.84zM6.431 4.103L2.798 8.82 1.683 2.118 6.43 4.103zm2.883 13.2l-7.655-2.072 1.05-3.552 6.605 5.624zm1.413 1.735l-1.445 1.58a24.016 24.016 0 0 0-4.008-3.056l5.453 1.476zm7.009-1.5a24.045 24.045 0 0 0-3.997 3.095l-1.476-1.597 5.473-1.498zM23 .026l-7.97 3.15H7.6L0 0l1.726 10.372L.07 15.986l4.325 2.571a22.664 22.664 0 0 1 5.453 4.527L11.53 25l1.768-2.015a22.661 22.661 0 0 1 5.25-4.413l4.241-2.586-1.527-5.606L23 .026z">
		</path>
	</g>
	<defs>
		<clipPath id="a">
			<path fill="#fff" d="M0 0h135.112v25H0z">
			</path>
		</clipPath>
	</defs>
</svg>
