<svg width="113" height="29" viewBox="0 0 113 29" fill="none" xmlns="http://www.w3.org/2000/svg">
	<path d="M35.033 20.925v-3.34l7.604-9.363h-7.424V4.95h12.252v3.091l-7.784 9.545h7.942v3.339h-12.59zM56.288 16.029h-.473c-.407 0-.82.022-1.241.067-.407.03-.775.098-1.106.203-.316.106-.58.264-.79.474-.21.196-.316.46-.316.79 0 .21.045.391.136.542.105.15.233.27.383.36.15.09.324.159.52.204.195.03.383.045.563.045.753 0 1.324-.203 1.715-.61.406-.42.61-.985.61-1.692v-.383zm-6.791-4.806A6.499 6.499 0 0 1 51.798 9.8a8.02 8.02 0 0 1 2.708-.474c.948 0 1.745.12 2.392.361.661.226 1.195.587 1.602 1.083.406.482.7 1.099.88 1.85.195.738.293 1.618.293 2.64v5.664h-3.385v-1.196h-.067c-.286.466-.722.828-1.309 1.083a4.534 4.534 0 0 1-1.873.384c-.45 0-.917-.06-1.399-.18a4.23 4.23 0 0 1-1.33-.587 3.225 3.225 0 0 1-.971-1.083c-.256-.452-.384-1.008-.384-1.67 0-.812.218-1.467.655-1.963.451-.496 1.023-.88 1.715-1.15a9.244 9.244 0 0 1 2.346-.542c.858-.09 1.692-.136 2.505-.136v-.18c0-.557-.196-.963-.587-1.219-.391-.27-.872-.406-1.444-.406a3.67 3.67 0 0 0-1.534.339 4.923 4.923 0 0 0-1.241.812l-1.873-2.008zM74.935 15.262c0 .782-.12 1.534-.361 2.256a5.821 5.821 0 0 1-1.06 1.918 5.127 5.127 0 0 1-1.67 1.308c-.662.332-1.414.497-2.257.497a4.83 4.83 0 0 1-1.963-.406c-.616-.286-1.098-.67-1.444-1.151h-.045v6.656h-3.7V9.688h3.52v1.377h.067c.346-.451.82-.842 1.422-1.173.617-.346 1.339-.52 2.166-.52.812 0 1.55.159 2.211.474a4.877 4.877 0 0 1 1.67 1.287c.466.541.82 1.173 1.06 1.895.256.707.384 1.451.384 2.234zm-3.588 0c0-.361-.06-.715-.18-1.06a2.401 2.401 0 0 0-.497-.903 2.331 2.331 0 0 0-.812-.655 2.54 2.54 0 0 0-1.15-.248c-.422 0-.798.083-1.129.248a2.826 2.826 0 0 0-.857.655c-.226.27-.406.579-.542.925a3.208 3.208 0 0 0 0 2.12c.136.347.316.655.542.926.24.27.526.489.857.654.331.166.707.248 1.128.248.437 0 .82-.082 1.151-.248.331-.165.602-.383.812-.654.226-.271.391-.58.497-.925.12-.361.18-.722.18-1.083zM89.764 15.262c0 .782-.12 1.534-.36 2.256a5.821 5.821 0 0 1-1.061 1.918 5.128 5.128 0 0 1-1.67 1.308c-.662.332-1.414.497-2.256.497a4.83 4.83 0 0 1-1.963-.406c-.617-.286-1.098-.67-1.444-1.151h-.046v6.656h-3.7V9.688h3.52v1.377h.068c.346-.451.82-.842 1.421-1.173.617-.346 1.339-.52 2.166-.52.813 0 1.55.159 2.211.474a4.877 4.877 0 0 1 1.67 1.287c.466.541.82 1.173 1.06 1.895.256.707.384 1.451.384 2.234zm-3.587 0c0-.361-.06-.715-.18-1.06a2.402 2.402 0 0 0-.497-.903 2.333 2.333 0 0 0-.813-.655 2.54 2.54 0 0 0-1.15-.248c-.422 0-.798.083-1.129.248-.33.166-.616.384-.857.655-.226.27-.406.579-.541.925a3.205 3.205 0 0 0 0 2.12c.135.347.315.655.541.926.24.27.527.489.858.654.33.166.706.248 1.128.248.436 0 .82-.082 1.15-.248.331-.165.602-.383.813-.654.225-.271.39-.58.496-.925.12-.361.18-.722.18-1.083zM99.832 14.02c0-.586-.188-1.09-.564-1.511-.36-.421-.91-.632-1.647-.632-.36 0-.692.06-.992.18-.301.106-.565.256-.79.452a2.242 2.242 0 0 0-.542.7c-.135.255-.21.526-.225.812h4.76zm3.408 1.422v.451c0 .15-.008.294-.023.43h-8.145c.03.315.12.6.27.857.166.255.369.48.61.676.255.18.534.324.834.43.316.104.64.157.97.157.587 0 1.084-.105 1.49-.316a3.07 3.07 0 0 0 .993-.857l2.572 1.624a5.273 5.273 0 0 1-2.099 1.783c-.857.406-1.857.609-3 .609a7.38 7.38 0 0 1-2.392-.384 6.199 6.199 0 0 1-1.986-1.15 5.651 5.651 0 0 1-1.331-1.873c-.316-.737-.474-1.58-.474-2.527 0-.918.158-1.745.474-2.482a5.491 5.491 0 0 1 1.286-1.895 5.644 5.644 0 0 1 1.918-1.219 6.559 6.559 0 0 1 2.392-.429c.827 0 1.587.143 2.279.43.692.27 1.286.669 1.782 1.195.497.527.88 1.166 1.151 1.918.286.752.429 1.61.429 2.572zM112.822 12.712a2.876 2.876 0 0 0-.496-.09 4.555 4.555 0 0 0-.451-.023c-.497 0-.918.09-1.264.27-.331.181-.602.4-.812.655a2.577 2.577 0 0 0-.429.835c-.09.3-.135.564-.135.79v5.776h-3.701V9.688h3.565v1.625h.045a3.645 3.645 0 0 1 1.219-1.399c.526-.36 1.136-.541 1.827-.541.151 0 .294.007.429.022.151.015.271.038.361.068l-.158 3.249z" fill="#fff">
	</path>
	<path fill-rule="evenodd" clip-rule="evenodd" d="M14.171 0c7.74 0 14.013 6.274 14.013 14.013S21.91 28.025 14.17 28.025.16 21.752.16 14.013C.159 6.273 6.432 0 14.17 0zm4.654 10.374l-10.132.05-2.433 3.608 5.705.002L9.5 17.667l10.197-.066 2.426-3.597-5.724.028 2.425-3.658z" fill="#fff">
	</path>
</svg>
